<svg xmlns="http://www.w3.org/2000/svg" xmlns:xlink="http://www.w3.org/1999/xlink" width="500" zoomAndPan="magnify" viewBox="0 0 375 374.999991" height="500" preserveAspectRatio="xMidYMid meet" version="1.0"><defs><clipPath id="2a51f69b6d"><path d="M 28 62 L 356 62 L 356 328.296875 L 28 328.296875 Z M 28 62 " clip-rule="nonzero"/></clipPath></defs><g clip-path="url(#2a51f69b6d)"><path fill="#12229d" d="M 355.480469 222.304688 C 355.480469 231.21875 348.546875 238.207031 339.699219 238.207031 L 301.726562 238.207031 C 273.300781 278.03125 233.105469 311.78125 195.5 327.132812 C 193.945312 327.769531 192.296875 328.085938 190.648438 328.085938 C 188.921875 328.085938 187.199219 327.738281 185.582031 327.042969 C 149.628906 311.601562 110.136719 278.675781 81.207031 240.265625 C 67.9375 240.628906 55.976562 240.929688 44.8125 241.175781 C 39.082031 241.3125 33.980469 238.511719 31.070312 233.710938 C 28.09375 228.796875 27.964844 222.601562 30.742188 217.535156 C 33.46875 212.554688 38.519531 209.503906 44.25 209.378906 C 49.757812 209.257812 55.269531 209.125 60.777344 208.988281 C 42.519531 176.027344 35.785156 144.996094 41.757812 120.054688 C 46.371094 100.804688 58.609375 85.210938 77.152344 74.960938 C 97.273438 63.839844 117.578125 61.214844 137.511719 67.15625 C 161.992188 74.457031 180.195312 93.324219 190.921875 107.394531 C 202.910156 92.164062 223.679688 70.988281 250.101562 64.730469 C 268.941406 60.269531 287.414062 63.882812 305.003906 75.480469 C 344.148438 101.289062 349.707031 150.335938 321.15625 206.402344 L 339.699219 206.402344 C 348.546875 206.402344 355.480469 213.386719 355.480469 222.304688 Z M 355.480469 222.304688 C 355.480469 231.21875 348.546875 238.207031 339.699219 238.207031 L 301.726562 238.207031 C 273.300781 278.03125 233.105469 311.78125 195.5 327.132812 C 193.945312 327.769531 192.296875 328.085938 190.648438 328.085938 C 188.921875 328.085938 187.199219 327.738281 185.582031 327.042969 C 149.628906 311.601562 110.136719 278.675781 81.207031 240.265625 C 67.9375 240.628906 55.976562 240.929688 44.8125 241.175781 C 39.082031 241.3125 33.980469 238.511719 31.070312 233.710938 C 28.09375 228.796875 27.964844 222.601562 30.742188 217.535156 C 33.46875 212.554688 38.519531 209.503906 44.25 209.378906 C 49.757812 209.257812 55.269531 209.125 60.777344 208.988281 C 42.519531 176.027344 35.785156 144.996094 41.757812 120.054688 C 46.371094 100.804688 58.609375 85.210938 77.152344 74.960938 C 97.273438 63.839844 117.578125 61.214844 137.511719 67.15625 C 161.992188 74.457031 180.195312 93.324219 190.921875 107.394531 C 202.910156 92.164062 223.679688 70.988281 250.101562 64.730469 C 268.941406 60.269531 287.414062 63.882812 305.003906 75.480469 C 344.148438 101.289062 349.707031 150.335938 321.15625 206.402344 L 339.699219 206.402344 C 348.546875 206.402344 355.480469 213.386719 355.480469 222.304688 Z M 355.480469 222.304688 " fill-opacity="1" fill-rule="nonzero"/></g><path fill="#cae8ff" d="M 190.648438 315.21875 C 102.308594 277.277344 -0.0351562 132.328125 83.363281 86.226562 C 148.320312 50.320312 190.648438 130.265625 190.648438 130.265625 C 190.648438 130.265625 238.625 47.121094 297.933594 86.226562 C 374.996094 137.039062 280.265625 278.632812 190.648438 315.21875 Z M 190.648438 315.21875 " fill-opacity="1" fill-rule="nonzero"/><path fill="#655aff" d="M 339.699219 225.339844 C 335.832031 225.339844 331.964844 225.339844 328.09375 225.339844 C 311.171875 225.339844 294.25 225.339844 277.328125 225.339844 C 266.707031 225.339844 256.082031 225.339844 245.457031 225.339844 C 244.484375 225.339844 243.261719 224.78125 242.839844 223.835938 C 239.539062 216.382812 236.238281 208.929688 232.933594 201.476562 C 229.257812 209.144531 226.132812 217.101562 223.03125 224.992188 C 220.769531 230.75 218.550781 236.53125 216.429688 242.34375 C 215.207031 245.699219 210.882812 244.902344 210.480469 241.535156 C 210.136719 238.683594 209.78125 235.832031 209.429688 232.984375 C 207.753906 219.488281 206.011719 205.996094 204.144531 192.527344 C 203.03125 184.5 201.984375 176.417969 200.671875 168.394531 C 200.0625 171.335938 199.480469 174.285156 198.925781 177.234375 C 195.832031 193.707031 193.335938 210.28125 190.65625 226.824219 C 188.273438 241.53125 185.988281 256.339844 182.347656 270.796875 C 181.617188 273.695312 177.242188 273.679688 176.503906 270.796875 C 170.296875 246.523438 164.492188 222.144531 158.390625 197.84375 C 155.296875 206.707031 151.5625 215.402344 147.792969 223.9375 C 147.367188 224.90625 146.160156 225.410156 145.179688 225.441406 C 142.65625 225.527344 140.132812 225.609375 137.609375 225.6875 C 106.585938 226.691406 75.5625 227.625 44.53125 228.3125 C 40.621094 228.398438 40.636719 222.332031 44.53125 222.246094 C 54.511719 222.023438 64.496094 221.773438 74.476562 221.503906 C 97.382812 220.886719 120.289062 220.199219 143.191406 219.4375 C 147.949219 208.621094 152.609375 197.410156 155.800781 185.929688 C 156.589844 183.082031 160.894531 183.003906 161.644531 185.929688 C 167.679688 209.535156 173.332031 233.234375 179.253906 256.867188 C 179.949219 253.390625 180.601562 249.902344 181.230469 246.414062 C 184.195312 229.914062 186.667969 213.328125 189.394531 196.789062 C 191.8125 182.113281 194.175781 167.316406 198.078125 152.945312 C 198.835938 150.152344 203.269531 149.960938 203.921875 152.945312 C 205.277344 159.175781 206.242188 165.5 207.210938 171.800781 C 209.535156 186.90625 211.542969 202.058594 213.492188 217.21875 C 214 221.140625 214.472656 225.066406 214.96875 228.988281 C 219.566406 216.722656 224.363281 204.402344 230.480469 192.878906 C 231.472656 191.007812 234.785156 190.789062 235.710938 192.878906 C 239.609375 201.675781 243.507812 210.472656 247.40625 219.269531 C 250.625 219.269531 253.84375 219.269531 257.0625 219.269531 C 273.984375 219.269531 290.90625 219.269531 307.828125 219.269531 C 318.449219 219.269531 329.074219 219.269531 339.699219 219.269531 C 343.605469 219.269531 343.597656 225.339844 339.699219 225.339844 Z M 339.699219 225.339844 C 335.832031 225.339844 331.964844 225.339844 328.09375 225.339844 C 311.171875 225.339844 294.25 225.339844 277.328125 225.339844 C 266.707031 225.339844 256.082031 225.339844 245.457031 225.339844 C 244.484375 225.339844 243.261719 224.78125 242.839844 223.835938 C 239.539062 216.382812 236.238281 208.929688 232.933594 201.476562 C 229.257812 209.144531 226.132812 217.101562 223.03125 224.992188 C 220.769531 230.75 218.550781 236.53125 216.429688 242.34375 C 215.207031 245.699219 210.882812 244.902344 210.480469 241.535156 C 210.136719 238.683594 209.78125 235.832031 209.429688 232.984375 C 207.753906 219.488281 206.011719 205.996094 204.144531 192.527344 C 203.03125 184.5 201.984375 176.417969 200.671875 168.394531 C 200.0625 171.335938 199.480469 174.285156 198.925781 177.234375 C 195.832031 193.707031 193.335938 210.28125 190.65625 226.824219 C 188.273438 241.53125 185.988281 256.339844 182.347656 270.796875 C 181.617188 273.695312 177.242188 273.679688 176.503906 270.796875 C 170.296875 246.523438 164.492188 222.144531 158.390625 197.84375 C 155.296875 206.707031 151.5625 215.402344 147.792969 223.9375 C 147.367188 224.90625 146.160156 225.410156 145.179688 225.441406 C 142.65625 225.527344 140.132812 225.609375 137.609375 225.6875 C 106.585938 226.691406 75.5625 227.625 44.53125 228.3125 C 40.621094 228.398438 40.636719 222.332031 44.53125 222.246094 C 54.511719 222.023438 64.496094 221.773438 74.476562 221.503906 C 97.382812 220.886719 120.289062 220.199219 143.191406 219.4375 C 147.949219 208.621094 152.609375 197.410156 155.800781 185.929688 C 156.589844 183.082031 160.894531 183.003906 161.644531 185.929688 C 167.679688 209.535156 173.332031 233.234375 179.253906 256.867188 C 179.949219 253.390625 180.601562 249.902344 181.230469 246.414062 C 184.195312 229.914062 186.667969 213.328125 189.394531 196.789062 C 191.8125 182.113281 194.175781 167.316406 198.078125 152.945312 C 198.835938 150.152344 203.269531 149.960938 203.921875 152.945312 C 205.277344 159.175781 206.242188 165.5 207.210938 171.800781 C 209.535156 186.90625 211.542969 202.058594 213.492188 217.21875 C 214 221.140625 214.472656 225.066406 214.96875 228.988281 C 219.566406 216.722656 224.363281 204.402344 230.480469 192.878906 C 231.472656 191.007812 234.785156 190.789062 235.710938 192.878906 C 239.609375 201.675781 243.507812 210.472656 247.40625 219.269531 C 250.625 219.269531 253.84375 219.269531 257.0625 219.269531 C 273.984375 219.269531 290.90625 219.269531 307.828125 219.269531 C 318.449219 219.269531 329.074219 219.269531 339.699219 219.269531 C 343.605469 219.269531 343.597656 225.339844 339.699219 225.339844 Z M 339.699219 225.339844 " fill-opacity="1" fill-rule="nonzero"/><path fill="#655aff" d="M 71.960938 112.25 C 72.671875 111.269531 73.886719 110.785156 75.015625 111.445312 C 75.984375 112.015625 76.53125 113.53125 75.820312 114.507812 C 71.140625 120.949219 68.542969 128.660156 68.496094 136.628906 C 68.476562 139.515625 64.007812 139.511719 64.023438 136.628906 C 64.078125 127.929688 66.84375 119.292969 71.960938 112.25 Z M 237.238281 268.203125 C 229.925781 274.71875 222.152344 280.683594 213.976562 286.070312 C 211.582031 287.648438 213.816406 291.523438 216.230469 289.9375 C 224.722656 284.34375 232.804688 278.132812 240.398438 271.367188 C 242.554688 269.449219 239.382812 266.292969 237.238281 268.203125 Z M 237.238281 268.203125 " fill-opacity="1" fill-rule="nonzero"/></svg>